<?xml version="1.0" encoding="iso-8859-1"?>
<!-- Generator: Adobe Illustrator 19.0.0, SVG Export Plug-In . SVG Version: 6.00 Build 0)  -->
<svg version="1.1" id="Capa_1" xmlns="http://www.w3.org/2000/svg" xmlns:xlink="http://www.w3.org/1999/xlink" x="0px" y="0px"
	 viewBox="0 0 512 512" style="enable-background:new 0 0 512 512;" xml:space="preserve">
<path style="fill:#AEADB3;" d="M97.008,511.548c-2.97-0.425-5.727-1.485-7.849-3.607L4.306,421.774
	c-2.121-2.121-3.395-4.666-3.818-7.635l0.212-0.212l49.851-42.639l98.853-9.759l8.486-0.849l-28.426,100.127L97.008,511.548z"/>
<g>
	<path style="fill:#8B8892;" d="M129.463,460.807l-32.456,50.742c-2.97-0.425-5.727-1.485-7.849-3.607L46.732,464.2l102.671-102.671
		l8.486-0.849L129.463,460.807z"/>
	<path style="fill:#8B8892;" d="M301.29,315.708L110.372,507.941c-3.395,3.395-7.85,4.88-13.364,3.607l23.971-121.594L0.488,414.139
		c-1.274-5.94,0.211-9.971,3.818-13.578l190.919-190.919l0.212,0.212l30.547,9.334l63.64,63.64l11.456,32.669L301.29,315.708z"/>
</g>
<g>
	<path style="fill:#787780;" d="M301.079,315.497l0.211,0.211L110.372,507.941c-3.395,3.395-7.85,4.88-13.364,3.607l23.971-121.594
		l137.886-137.886l30.759,30.759L301.079,315.497z"/>
	<path style="fill:#787780;" d="M302.079,314.497L196.437,208.854c1.696-1.696,3.606-3.181,5.728-4.029l9.97-3.182
		c32.669-11.031,63.215-29.699,87.822-54.306c9.123-9.123,17.609-8.273,23.548-2.334l42.639,42.639
		c6.153,6.153,6.788,15.274-3.182,23.971c-23.759,23.759-42.639,54.095-53.881,87.4
		C306.957,305.375,305.473,310.679,302.079,314.497z"/>
</g>
<path style="fill:#57555C;" d="M302.079,314.497l-52.822-52.822l95.459-95.459l21.426,21.426c6.153,6.153,6.788,15.274-3.182,23.971
	c-23.759,23.759-42.639,54.095-53.881,87.4C306.957,305.375,305.473,310.679,302.079,314.497z"/>
<path style="fill:#FEA832;" d="M412.812,197.824l-0.212-34.153l70.853-47.094c33.517-22.486,38.396-70.216,9.757-98.854
	c-27.365-27.365-77.429-22.272-99.065,9.971l-46.882,70.64h-34.365c-4.029-0.212-7.849,1.484-10.607,4.242l-21.424,21.002
	c-5.728,5.728-5.728,15.485,0,21.213c19.303,19.303,33.305,32.88,42.85,42.425c59.609,59.609-47.305-46.88,42.214,42.639
	c5.728,5.728,15.273,5.94,21.213,0l21.213-21.213C411.326,205.673,412.6,201.853,412.812,197.824z"/>
<path style="fill:#FE8821;" d="M412.812,197.824c-0.212,4.029-1.486,7.849-4.455,10.818l-21.213,21.213
	c-5.94,5.94-15.485,5.728-21.213,0c-89.519-89.519,17.395,16.97-42.214-42.639L493.21,17.723
	c28.639,28.639,23.76,76.368-9.757,98.854L412.6,163.671L412.812,197.824z"/>
<g>
</g>
<g>
</g>
<g>
</g>
<g>
</g>
<g>
</g>
<g>
</g>
<g>
</g>
<g>
</g>
<g>
</g>
<g>
</g>
<g>
</g>
<g>
</g>
<g>
</g>
<g>
</g>
<g>
</g>
</svg>
